# xmcd
#
# Track frame offsets: 
#        182
#        9390
#        18955
#        30447
#        42862
#        55937
#        65340
#        80115
#        92970
#        106907
#        124020
#        134790
#        144342
#        155030
#        168332
#        181995
#        194837
#        211062
#        232320
#        250845
#        266765
#        280980
#        298380
#
# Disc length: 4613 seconds
#
# Revision: 5
# Processed by: cddbd v1.5.2PL0 Copyright (c) Steve Scherf et al.
# Submitted via: ExactAudioCopy v0.99pb4
#
DISCID=5d120317
DTITLE=Bobby Womack - Midnight Mover: The Bobby Womack Collection (Dis
DTITLE=c 1)
DYEAR=1993
DGENRE=R&B
TTITLE0=I'm A Midnight Mover
TTITLE1=Broadway Walk
TTITLE2=What Is This
TTITLE3=I'm In Love
TTITLE4=Somebody Special
TTITLE5=What You Gonna Do (When Your Love Is Gone)
TTITLE6=How I Miss You Baby
TTITLE7=More Than I Can Stand
TTITLE8=I Can't Take It Like A Man
TTITLE9=Laughing And Clowning [live]
TTITLE10=It's Gonna Rain
TTITLE11=Fly Me To The Moon (In Other Words)
TTITLE12=I Left My Heart In San Francisco
TTITLE13=Arkansas State Prison
TTITLE14=Come L'Amore
TTITLE15=(If You Don't Want My Love) Give It Back
TTITLE16=That's The Way I Feel About Cha
TTITLE17=Communication
TTITLE18=I Can Understand It
TTITLE19=Woman's Gotta Have It
TTITLE20=Sweet Caroline (Good Times Never Seemed So Good)
TTITLE21=Harry Hippie
TTITLE22=The Preacher/More Than I Can Stand [live]
EXTD=
EXTT0=
EXTT1=
EXTT2=
EXTT3=
EXTT4=
EXTT5=
EXTT6=
EXTT7=
EXTT8=
EXTT9=
EXTT10=
EXTT11=
EXTT12=
EXTT13=
EXTT14=
EXTT15=
EXTT16=
EXTT17=
EXTT18=
EXTT19=
EXTT20=
EXTT21=
EXTT22=
PLAYORDER=
